<svg width="70" height="70" viewBox="0 0 70 70" fill="none" xmlns="http://www.w3.org/2000/svg">
<path d="M70 35C70 54.33 54.33 70 35 70C15.67 70 0 54.33 0 35C0 15.67 15.67 0 35 0C54.33 0 70 15.67 70 35Z" fill="#312626"/>
<path d="M15.5332 19.2627C15.2393 19.4131 15 19.8164 15 20.1445C15 20.4863 15.2393 20.876 15.5469 21.0332C15.7998 21.1631 15.9434 21.1699 18.0557 21.1699H20.3047L25.2471 38.4785L25.0488 38.875C24.707 39.5518 24.5566 40.085 24.5566 40.6523C24.5566 42.0742 25.4795 43.2637 26.8604 43.626C27.1543 43.7012 27.6465 43.7285 28.6719 43.7354C29.9365 43.7422 30.0391 43.749 29.7314 43.8242C29.1572 43.9678 28.7266 44.2139 28.2891 44.6514C27.0791 45.8545 27.0791 47.7481 28.2959 48.958C30.0596 50.7285 33.0469 49.7647 33.4707 47.29C33.6348 46.3262 33.3203 45.3691 32.6025 44.6445C32.1719 44.2139 31.625 43.8994 31.1123 43.7969C30.9482 43.7695 32.9033 43.7422 35.6104 43.7422C39.5752 43.7422 40.334 43.7559 40.0537 43.8242C39.4795 43.9678 39.0488 44.2139 38.6113 44.6514C37.4014 45.8545 37.4014 47.7549 38.6113 48.958C40.3887 50.7285 43.3691 49.7647 43.793 47.29C44.0596 45.7383 43.0342 44.2002 41.4893 43.8242C41.1953 43.749 41.4141 43.7422 43.1162 43.7354C44.9482 43.7285 45.1055 43.7217 45.3516 43.5918C45.6592 43.4346 45.8984 43.0449 45.8984 42.7031C45.8984 42.3613 45.6592 41.9717 45.3516 41.8145C45.085 41.6777 44.9688 41.6777 36.2461 41.6777C27.9678 41.6777 27.3936 41.6709 27.168 41.5547C26.6143 41.2813 26.4775 40.6797 26.8057 40.0029L26.9902 39.627H36.0342C45.0029 39.627 45.085 39.627 45.3584 39.4902C45.5498 39.3877 45.6729 39.2647 45.7617 39.0596C45.9463 38.6768 50 24.4375 50 24.1982C50 23.918 49.7266 23.4941 49.4531 23.3506C49.2275 23.2275 48.7422 23.2207 36.1162 23.2207H23.0186L22.5605 21.5938C21.9932 19.6182 21.9248 19.4473 21.5352 19.2627C21.2549 19.126 21.1387 19.1191 18.5137 19.1191C15.9365 19.126 15.7725 19.1328 15.5332 19.2627ZM47.5801 25.3877C47.5596 25.4561 46.7734 28.2246 45.8232 31.54L44.1006 37.5762H27.1201L25.3975 31.54C24.4473 28.2246 23.6611 25.4561 23.6406 25.3877C23.6064 25.2783 24.208 25.2715 35.6104 25.2715C47.0127 25.2715 47.6143 25.2783 47.5801 25.3877ZM30.9277 45.916C31.2354 46.0732 31.4746 46.4629 31.4746 46.8115C31.4746 47.3174 30.9551 47.8301 30.4424 47.8301C30.1279 47.8301 29.7041 47.5635 29.5537 47.2695C29.3008 46.7773 29.458 46.2373 29.9434 45.9434C30.2715 45.7451 30.5723 45.7383 30.9277 45.916ZM41.25 45.916C41.5576 46.0732 41.7969 46.4629 41.7969 46.8115C41.7969 47.3174 41.2773 47.8301 40.7646 47.8301C40.4502 47.8301 40.0264 47.5635 39.876 47.2695C39.623 46.7773 39.7803 46.2373 40.2656 45.9434C40.5938 45.7451 40.8945 45.7383 41.25 45.916Z" fill="white"/>
</svg>
