<?xml version="1.0" encoding="UTF-8"?>
<!DOCTYPE svg PUBLIC "-//W3C//DTD SVG 1.1//EN" "http://www.w3.org/Graphics/SVG/1.1/DTD/svg11.dtd">
<!-- Creator: CorelDRAW -->
<svg xmlns="http://www.w3.org/2000/svg" xml:space="preserve" width="5.08mm" height="5.08mm" version="1.1" style="shape-rendering:geometricPrecision; text-rendering:geometricPrecision; image-rendering:optimizeQuality; fill-rule:evenodd; clip-rule:evenodd"
viewBox="0 0 508 508"
 xmlns:xlink="http://www.w3.org/1999/xlink"
 xmlns:xodm="http://www.corel.com/coreldraw/odm/2003">
 <defs>
  <style type="text/css">
   <![CDATA[
    .fil0 {fill:black;fill-rule:nonzero}
   ]]>
  </style>
 </defs>
 <g id="Слой_x0020_1">
  <metadata id="CorelCorpID_0Corel-Layer"/>
  <path class="fil0" d="M254 0c140.28,0 254,113.72 254,254 0,140.28 -113.72,254 -254,254 -44.96,0 -87.15,-11.73 -123.79,-32.22l-127.73 28.58 32.5 -121.76c-22.19,-37.73 -34.98,-81.66 -34.98,-128.6 0,-140.28 113.72,-254 254,-254zm104.98 330.79c4.45,-12.37 4.45,-22.97 3.06,-25.21 -1.35,-2.15 -4.86,-3.47 -10.24,-6.13 -5.38,-2.65 -31.71,-15.49 -36.65,-17.24 -4.87,-1.75 -8.48,-2.65 -11.99,2.65 -3.61,5.32 -13.83,17.25 -17.01,20.73 -3.1,3.56 -6.2,3.97 -11.57,1.32 -5.38,-2.65 -22.65,-8.21 -43.11,-26.28 -15.91,-14 -26.65,-31.32 -29.75,-36.63 -3.1,-5.3 -0.34,-8.2 2.34,-10.86 2.43,-2.31 5.38,-6.13 8.06,-9.19 2.59,-3.16 3.51,-5.32 5.28,-8.88 1.85,-3.47 0.92,-6.63 -0.42,-9.29 -1.33,-2.65 -11.73,-28.83 -16.52,-39.28 -4.01,-8.78 -8.22,-9.04 -12.08,-9.12 -3.12,-0.16 -6.73,-0.16 -10.24,-0.16 -3.61,0 -9.4,1.31 -14.33,6.62 -4.84,5.32 -18.69,18.09 -18.69,44.2 0,26.02 19.13,51.23 21.81,54.7 2.69,3.56 37.05,58.75 91.56,79.97 45.19,17.58 54.42,14.1 64.31,13.19 9.84,-0.83 31.72,-12.77 36.18,-25.11z"/>
 </g>
</svg>
