<?xml version="1.0" encoding="UTF-8"?>
<!DOCTYPE svg PUBLIC "-//W3C//DTD SVG 1.1//EN" "http://www.w3.org/Graphics/SVG/1.1/DTD/svg11.dtd">
<!-- Creator: CorelDRAW -->
<svg xmlns="http://www.w3.org/2000/svg" xml:space="preserve" width="5.08mm" height="5.08mm" version="1.1" style="shape-rendering:geometricPrecision; text-rendering:geometricPrecision; image-rendering:optimizeQuality; fill-rule:evenodd; clip-rule:evenodd"
viewBox="0 0 508 508"
 xmlns:xlink="http://www.w3.org/1999/xlink"
 xmlns:xodm="http://www.corel.com/coreldraw/odm/2003">
 <defs>
  <style type="text/css">
   <![CDATA[
    .fil0 {fill:black;fill-rule:nonzero}
   ]]>
  </style>
 </defs>
 <g id="Слой_x0020_1">
  <metadata id="CorelCorpID_0Corel-Layer"/>
  <path class="fil0" d="M254 0c-140.27,0 -254,113.73 -254,254 0,140.27 113.73,254 254,254 140.27,0 254,-113.73 254,-254 0,-140.27 -113.73,-254 -254,-254zm134.64 337.97l-39.54 0.55c0,0 -8.53,1.67 -19.68,-6.03 -14.8,-10.16 -28.75,-36.6 -39.63,-33.17 -11.03,3.51 -10.69,27.3 -10.69,27.3 0,0 0.09,4.2 -2.43,6.92 -2.73,2.95 -8.09,2.65 -8.09,2.65l-17.71 0c0,0 -39.07,3.24 -73.51,-32.66 -37.51,-39.13 -70.66,-116.37 -70.66,-116.37 0,0 -1.95,-4.87 0.13,-7.37 2.35,-2.75 8.68,-2.84 8.68,-2.84l42.33 -0.21c0,0 3.98,0.7 6.86,2.82 2.35,1.73 3.68,4.99 3.68,4.99 0,0 6.84,17.34 15.92,33.04 17.7,30.61 25.91,37.32 31.92,34.04 8.76,-4.79 6.14,-43.27 6.14,-43.27 0,0 0.17,-13.97 -4.4,-20.19 -3.56,-4.85 -10.25,-6.29 -13.17,-6.65 -2.39,-0.31 1.51,-5.86 6.59,-8.36 7.62,-3.72 21.08,-3.93 36.98,-3.78 12.38,0.12 15.96,0.88 20.78,2.07 14.6,3.54 9.65,17.17 9.65,49.87 0,10.48 -1.88,25.21 5.65,30.06 3.26,2.09 11.2,0.31 30.99,-33.43 9.42,-16 16.47,-34.8 16.47,-34.8 0,0 1.54,-3.34 3.94,-4.78 2.45,-1.48 5.75,-1.02 5.75,-1.02l44.56 -0.27c0,0 13.37,-1.61 15.55,4.46 2.29,6.36 -4.99,21.19 -23.2,45.47 -29.88,39.88 -33.21,36.17 -8.38,59.25 23.71,22.03 28.6,32.74 29.42,34.1 9.8,16.32 -10.9,17.61 -10.9,17.61z"/>
 </g>
</svg>
