<?xml version="1.0" encoding="UTF-8"?>
<!DOCTYPE svg PUBLIC "-//W3C//DTD SVG 1.1//EN" "http://www.w3.org/Graphics/SVG/1.1/DTD/svg11.dtd">
<!-- Creator: CorelDRAW -->
<svg xmlns="http://www.w3.org/2000/svg" xml:space="preserve" width="5.08mm" height="5.08mm" version="1.1" style="shape-rendering:geometricPrecision; text-rendering:geometricPrecision; image-rendering:optimizeQuality; fill-rule:evenodd; clip-rule:evenodd"
viewBox="0 0 508 508"
 xmlns:xlink="http://www.w3.org/1999/xlink"
 xmlns:xodm="http://www.corel.com/coreldraw/odm/2003">
 <defs>
  <style type="text/css">
   <![CDATA[
    .fil0 {fill:black;fill-rule:nonzero}
   ]]>
  </style>
 </defs>
 <g id="Слой_x0020_1">
  <metadata id="CorelCorpID_0Corel-Layer"/>
  <path class="fil0" d="M254 0c140.28,0 254,113.72 254,254 0,140.28 -113.72,254 -254,254 -140.28,0 -254,-113.72 -254,-254 0,-140.28 113.72,-254 254,-254zm87.62 357.54c4.66,-14.33 26.56,-157.2 29.26,-185.35 0.82,-8.53 -1.87,-14.19 -7.15,-16.72 -6.39,-3.07 -15.83,-1.54 -26.81,2.42 -15.04,5.42 -207.33,87.07 -218.44,91.79 -10.53,4.48 -20.5,9.36 -20.5,16.43 0,4.97 2.95,7.76 11.08,10.67 8.46,3.01 29.76,9.47 42.35,12.94 12.12,3.35 25.91,0.45 33.63,-4.36 8.19,-5.09 102.76,-68.36 109.55,-73.91 6.78,-5.55 12.19,1.55 6.65,7.11 -5.55,5.55 -70.46,68.55 -79.02,77.27 -10.39,10.6 -3.01,21.57 3.96,25.96 7.96,5.02 65.23,43.43 73.86,49.59 8.62,6.16 17.36,8.95 25.37,8.95 8.02,0 12.22,-10.55 16.21,-22.79z"/>
 </g>
</svg>
