<svg width="244" height="54" viewBox="0 0 244 54" fill="none" xmlns="http://www.w3.org/2000/svg">
<path d="M0 10C0 4.47715 4.47715 0 10 0H40C45.5228 0 50 4.47715 50 10V40C50 45.5228 45.5228 50 40 50H18.678C17.66 50 16.74 50.6067 16.339 51.5423C15.4577 53.5988 12.5423 53.5988 11.661 51.5423C11.26 50.6067 10.34 50 9.322 50H6.62892C2.96787 50 0 47.0321 0 43.3711V10Z" fill="#312626"/>
<path d="M14.2666 37L5.02664 16H8.26664L16.7566 35.38H14.8966L23.4466 16H26.4466L17.2366 37H14.2666Z" fill="white"/>
<path d="M31.8246 25.93H42.6546V28.51H31.8246V25.93ZM32.1246 37H29.1246V16H43.9446V18.61H32.1246V37Z" fill="white"/>
<path d="M69.925 36L62.525 18.5H68.875L74.9 33.275H71.125L77.325 18.5H83.125L75.725 36H69.925Z" fill="black"/>
<path d="M84.0254 36V22.325H89.6754V36H84.0254ZM86.8504 21.225C85.8171 21.225 84.9921 20.95 84.3754 20.4C83.7587 19.85 83.4504 19.1667 83.4504 18.35C83.4504 17.5333 83.7587 16.85 84.3754 16.3C84.9921 15.75 85.8171 15.475 86.8504 15.475C87.8837 15.475 88.7087 15.7333 89.3254 16.25C89.9421 16.7667 90.2504 17.4333 90.2504 18.25C90.2504 19.1167 89.9421 19.8333 89.3254 20.4C88.7087 20.95 87.8837 21.225 86.8504 21.225Z" fill="black"/>
<path d="M101.68 22.075C102.73 22.075 103.68 22.2917 104.53 22.725C105.38 23.1417 106.046 23.8 106.53 24.7C107.03 25.6 107.28 26.7667 107.28 28.2V36H101.63V29.175C101.63 28.325 101.48 27.725 101.18 27.375C100.88 27.0083 100.471 26.825 99.9547 26.825C99.5714 26.825 99.213 26.9167 98.8797 27.1C98.563 27.2667 98.3047 27.55 98.1047 27.95C97.9214 28.35 97.8297 28.8917 97.8297 29.575V36H92.1797V22.325H97.5547V26.325L96.4797 25.175C97.013 24.1417 97.7297 23.3667 98.6297 22.85C99.5464 22.3333 100.563 22.075 101.68 22.075Z" fill="black"/>
<path d="M116.333 36.25C114.45 36.25 112.983 35.8 111.933 34.9C110.883 33.9833 110.358 32.5833 110.358 30.7V19.25H116.008V30.65C116.008 31.0667 116.117 31.3917 116.333 31.625C116.567 31.8583 116.85 31.975 117.183 31.975C117.667 31.975 118.092 31.85 118.458 31.6L119.808 35.525C119.375 35.775 118.85 35.9583 118.233 36.075C117.633 36.1917 117 36.25 116.333 36.25ZM108.483 27.2V23.075H118.808V27.2H108.483Z" fill="black"/>
<path d="M129.507 36V33.575L129.107 32.925V28.325C129.107 27.6583 128.899 27.15 128.482 26.8C128.082 26.45 127.424 26.275 126.507 26.275C125.891 26.275 125.266 26.375 124.632 26.575C123.999 26.7583 123.457 27.0167 123.007 27.35L121.207 23.625C122.007 23.125 122.966 22.7417 124.082 22.475C125.199 22.2083 126.291 22.075 127.357 22.075C129.707 22.075 131.524 22.6 132.807 23.65C134.107 24.7 134.757 26.3667 134.757 28.65V36H129.507ZM125.632 36.25C124.516 36.25 123.582 36.0583 122.832 35.675C122.082 35.2917 121.516 34.7833 121.132 34.15C120.749 33.5 120.557 32.7833 120.557 32C120.557 31.1167 120.782 30.3667 121.232 29.75C121.682 29.1333 122.366 28.6667 123.282 28.35C124.216 28.0333 125.391 27.875 126.807 27.875H129.657V30.6H127.707C127.107 30.6 126.666 30.7 126.382 30.9C126.116 31.0833 125.982 31.3667 125.982 31.75C125.982 32.0667 126.099 32.3333 126.332 32.55C126.582 32.75 126.916 32.85 127.332 32.85C127.716 32.85 128.066 32.75 128.382 32.55C128.716 32.3333 128.957 32 129.107 31.55L129.832 33.225C129.616 34.2417 129.157 35 128.457 35.5C127.757 36 126.816 36.25 125.632 36.25Z" fill="black"/>
<path d="M144.393 41.1C143.043 41.1 141.777 40.9583 140.593 40.675C139.41 40.3917 138.393 39.9667 137.543 39.4L139.443 35.55C139.977 35.9667 140.652 36.2917 141.468 36.525C142.302 36.775 143.085 36.9 143.818 36.9C144.985 36.9 145.818 36.65 146.318 36.15C146.818 35.6667 147.068 34.9667 147.068 34.05V32.9L147.318 28.65L147.343 24.4V22.325H152.718V33.275C152.718 35.925 151.985 37.8917 150.518 39.175C149.052 40.4583 147.01 41.1 144.393 41.1ZM143.293 35.25C142.143 35.25 141.068 34.9833 140.068 34.45C139.068 33.9 138.26 33.1333 137.643 32.15C137.027 31.1667 136.718 30 136.718 28.65C136.718 27.3 137.027 26.1333 137.643 25.15C138.26 24.1667 139.068 23.4083 140.068 22.875C141.068 22.3417 142.143 22.075 143.293 22.075C144.477 22.075 145.443 22.3083 146.193 22.775C146.96 23.2417 147.527 23.9667 147.893 24.95C148.26 25.9167 148.443 27.15 148.443 28.65C148.443 30.15 148.26 31.3917 147.893 32.375C147.527 33.3417 146.96 34.0667 146.193 34.55C145.443 35.0167 144.477 35.25 143.293 35.25ZM144.793 30.85C145.243 30.85 145.643 30.7583 145.993 30.575C146.343 30.3917 146.618 30.1333 146.818 29.8C147.018 29.4667 147.118 29.0833 147.118 28.65C147.118 28.2 147.018 27.8167 146.818 27.5C146.618 27.1667 146.343 26.9167 145.993 26.75C145.643 26.5667 145.243 26.475 144.793 26.475C144.36 26.475 143.96 26.5667 143.593 26.75C143.243 26.9167 142.96 27.1667 142.743 27.5C142.543 27.8167 142.443 28.2 142.443 28.65C142.443 29.0833 142.543 29.4667 142.743 29.8C142.96 30.1333 143.243 30.3917 143.593 30.575C143.96 30.7583 144.36 30.85 144.793 30.85Z" fill="black"/>
<path d="M162.767 36.25C161.1 36.25 159.642 35.9417 158.392 35.325C157.158 34.7083 156.2 33.8667 155.517 32.8C154.833 31.7167 154.492 30.5 154.492 29.15C154.492 27.7667 154.825 26.5417 155.492 25.475C156.175 24.4083 157.1 23.575 158.267 22.975C159.45 22.375 160.775 22.075 162.242 22.075C163.592 22.075 164.833 22.3417 165.967 22.875C167.117 23.4083 168.033 24.2 168.717 25.25C169.417 26.3 169.767 27.6 169.767 29.15C169.767 29.35 169.758 29.575 169.742 29.825C169.725 30.0583 169.708 30.275 169.692 30.475H159.167V27.75H166.692L164.567 28.475C164.567 27.9417 164.467 27.4917 164.267 27.125C164.083 26.7417 163.825 26.45 163.492 26.25C163.158 26.0333 162.758 25.925 162.292 25.925C161.825 25.925 161.417 26.0333 161.067 26.25C160.733 26.45 160.475 26.7417 160.292 27.125C160.108 27.4917 160.017 27.9417 160.017 28.475V29.325C160.017 29.9083 160.133 30.4083 160.367 30.825C160.6 31.2417 160.933 31.5583 161.367 31.775C161.8 31.975 162.325 32.075 162.942 32.075C163.575 32.075 164.092 31.9917 164.492 31.825C164.908 31.6583 165.342 31.4083 165.792 31.075L168.742 34.05C168.075 34.7667 167.25 35.3167 166.267 35.7C165.3 36.0667 164.133 36.25 162.767 36.25Z" fill="black"/>
<path d="M184.72 25.95H192.42V30.4H184.72V25.95ZM185.12 36H179.22V18.5H193.445V22.95H185.12V36Z" fill="black"/>
<path d="M202.115 36.25C200.565 36.25 199.19 35.95 197.99 35.35C196.806 34.7333 195.873 33.8917 195.19 32.825C194.506 31.7583 194.165 30.5333 194.165 29.15C194.165 27.7667 194.506 26.5417 195.19 25.475C195.873 24.4083 196.806 23.575 197.99 22.975C199.19 22.375 200.565 22.075 202.115 22.075C203.665 22.075 205.04 22.375 206.24 22.975C207.44 23.575 208.373 24.4083 209.04 25.475C209.723 26.5417 210.065 27.7667 210.065 29.15C210.065 30.5333 209.723 31.7583 209.04 32.825C208.373 33.8917 207.44 34.7333 206.24 35.35C205.04 35.95 203.665 36.25 202.115 36.25ZM202.115 31.85C202.531 31.85 202.906 31.75 203.24 31.55C203.573 31.35 203.84 31.05 204.04 30.65C204.24 30.2333 204.34 29.7333 204.34 29.15C204.34 28.55 204.24 28.0583 204.04 27.675C203.84 27.275 203.573 26.975 203.24 26.775C202.906 26.575 202.531 26.475 202.115 26.475C201.698 26.475 201.323 26.575 200.99 26.775C200.656 26.975 200.39 27.275 200.19 27.675C199.99 28.0583 199.89 28.55 199.89 29.15C199.89 29.7333 199.99 30.2333 200.19 30.65C200.39 31.05 200.656 31.35 200.99 31.55C201.323 31.75 201.698 31.85 202.115 31.85Z" fill="black"/>
<path d="M219.058 36.25C217.508 36.25 216.133 35.95 214.933 35.35C213.75 34.7333 212.816 33.8917 212.133 32.825C211.45 31.7583 211.108 30.5333 211.108 29.15C211.108 27.7667 211.45 26.5417 212.133 25.475C212.816 24.4083 213.75 23.575 214.933 22.975C216.133 22.375 217.508 22.075 219.058 22.075C220.608 22.075 221.983 22.375 223.183 22.975C224.383 23.575 225.316 24.4083 225.983 25.475C226.666 26.5417 227.008 27.7667 227.008 29.15C227.008 30.5333 226.666 31.7583 225.983 32.825C225.316 33.8917 224.383 34.7333 223.183 35.35C221.983 35.95 220.608 36.25 219.058 36.25ZM219.058 31.85C219.475 31.85 219.85 31.75 220.183 31.55C220.516 31.35 220.783 31.05 220.983 30.65C221.183 30.2333 221.283 29.7333 221.283 29.15C221.283 28.55 221.183 28.0583 220.983 27.675C220.783 27.275 220.516 26.975 220.183 26.775C219.85 26.575 219.475 26.475 219.058 26.475C218.641 26.475 218.266 26.575 217.933 26.775C217.6 26.975 217.333 27.275 217.133 27.675C216.933 28.0583 216.833 28.55 216.833 29.15C216.833 29.7333 216.933 30.2333 217.133 30.65C217.333 31.05 217.6 31.35 217.933 31.55C218.266 31.75 218.641 31.85 219.058 31.85Z" fill="black"/>
<path d="M234.776 36.25C233.593 36.25 232.493 35.9667 231.476 35.4C230.476 34.8167 229.676 34 229.076 32.95C228.476 31.8833 228.176 30.6167 228.176 29.15C228.176 27.6833 228.476 26.425 229.076 25.375C229.676 24.3083 230.476 23.4917 231.476 22.925C232.493 22.3583 233.593 22.075 234.776 22.075C235.976 22.075 236.96 22.3333 237.726 22.85C238.493 23.35 239.06 24.125 239.426 25.175C239.793 26.2083 239.976 27.5333 239.976 29.15C239.976 30.7833 239.801 32.125 239.451 33.175C239.118 34.225 238.568 35 237.801 35.5C237.051 36 236.043 36.25 234.776 36.25ZM236.126 31.85C236.543 31.85 236.918 31.75 237.251 31.55C237.585 31.35 237.851 31.05 238.051 30.65C238.251 30.2333 238.351 29.7333 238.351 29.15C238.351 28.55 238.251 28.0583 238.051 27.675C237.851 27.275 237.585 26.975 237.251 26.775C236.918 26.575 236.543 26.475 236.126 26.475C235.71 26.475 235.335 26.575 235.001 26.775C234.668 26.975 234.401 27.275 234.201 27.675C234.001 28.0583 233.901 28.55 233.901 29.15C233.901 29.7333 234.001 30.2333 234.201 30.65C234.401 31.05 234.668 31.35 235.001 31.55C235.335 31.75 235.71 31.85 236.126 31.85ZM238.526 36V34.15L238.501 29.15L238.251 24.15V17.45H243.901V36H238.526Z" fill="black"/>
</svg>
